<mxfile host="app.diagrams.net" modified="2022-11-12T08:30:21.540Z" agent="5.0 (Macintosh; Intel Mac OS X 10_15_7) AppleWebKit/537.36 (KHTML, like Gecko) Chrome/107.0.0.0 Safari/537.36" etag="M3VoCCRTSoLkqSONKBWx" version="20.5.1" type="github">
  <diagram id="jk84KoCiqGRbvonOO5nR" name="Page-1">
    <mxGraphModel dx="931" dy="710" grid="0" gridSize="10" guides="1" tooltips="1" connect="1" arrows="1" fold="1" page="1" pageScale="1" pageWidth="950" pageHeight="560" background="#EFF1F3" math="0" shadow="0">
      <root>
        <mxCell id="0" />
        <mxCell id="1" parent="0" />
        <mxCell id="Q42ew3M5vbBd64VQrwt8-5" value="" style="rounded=1;whiteSpace=wrap;html=1;fontColor=#4A919B;fillColor=none;strokeWidth=3;dashed=1;strokeColor=#4A919B;" parent="1" vertex="1">
          <mxGeometry x="68" y="137" width="490" height="346" as="geometry" />
        </mxCell>
        <mxCell id="76pOBQbfIAmx4sFAEdD8-6" value="&lt;font color=&quot;#4a919b&quot; style=&quot;font-size: 26px;&quot;&gt;192.168.30.&lt;/font&gt;&lt;font style=&quot;font-size: 26px;&quot;&gt;&lt;font color=&quot;#4a919b&quot;&gt;5&lt;/font&gt;&lt;br&gt;&lt;/font&gt;" style="text;html=1;strokeColor=none;fillColor=none;align=center;verticalAlign=middle;whiteSpace=wrap;rounded=0;" parent="1" vertex="1">
          <mxGeometry x="102" y="263" width="140" height="59" as="geometry" />
        </mxCell>
        <mxCell id="zeDkDpAEbT0e0O8mL41E-1" value="" style="shape=image;verticalLabelPosition=bottom;verticalAlign=top;imageAspect=0;aspect=fixed;image=data:image/svg+xml,PHN2ZyB4bWxuczp4bGluaz0iaHR0cDovL3d3dy53My5vcmcvMTk5OS94bGluayIgeG1sbnM9Imh0dHA6Ly93d3cudzMub3JnLzIwMDAvc3ZnIiBoZWlnaHQ9IjIwMCIgd2lkdGg9IjIwMCIgdmVyc2lvbj0iMS4xIiB2aWV3Qm94PSIwIDAgMTAyNCAxMDI0IiBjbGFzcz0iaWNvbiI+PGRlZnM+PHN0eWxlIHR5cGU9InRleHQvY3NzIj5AZm9udC1mYWNlIHsgZm9udC1mYW1pbHk6IGZlZWRiYWNrLWljb25mb250OyBzcmM6IHVybCgiLy9hdC5hbGljZG4uY29tL3QvZm9udF8xMDMxMTU4X3U2OXc4eWh4ZHUud29mZjI/dD0xNjMwMDMzNzU5OTQ0IikgZm9ybWF0KCJ3b2ZmMiIpLCB1cmwoIi8vYXQuYWxpY2RuLmNvbS90L2ZvbnRfMTAzMTE1OF91Njl3OHloeGR1LndvZmY/dD0xNjMwMDMzNzU5OTQ0IikgZm9ybWF0KCJ3b2ZmIiksIHVybCgiLy9hdC5hbGljZG4uY29tL3QvZm9udF8xMDMxMTU4X3U2OXc4eWh4ZHUudHRmP3Q9MTYzMDAzMzc1OTk0NCIpIGZvcm1hdCgidHJ1ZXR5cGUiKTsgfSYjeGE7PC9zdHlsZT48L2RlZnM+PHBhdGggZmlsbD0iIzRBOTE5QiIgZD0iTTg0Mi4zOTQ1OTUgNzk5LjczMzIzNyA2NDAuOTczMDc2IDc5OS43MzMyMzcgNjQwLjk3MzA3NiA5MTQuODI1NTA4bDU3LjU0OTAwNSAwYzE1LjkwMzg1MyAwIDI4Ljc3NDUwMyAxMi44NjkwOTkgMjguNzc0NTAzIDI4Ljc3MzMyNCAwIDE1LjkwMzIwMi0xMi44NzA2NDkgMjguNzcyMy0yOC43NzQ1MDMgMjguNzcyM0wzNTMuMjI4MDUgOTcyLjM3MTEzMmMtMTUuOTA0ODc3IDAtMjguNzc0NTAzLTEyLjg2OTA5OS0yOC43NzQ1MDMtMjguNzcyMyAwLTE1LjkwNDIyNSAxMi44Njk2MjYtMjguNzczMzI0IDI4Ljc3NDUwMy0yOC43NzMzMjRsNTcuNTQ5MDA1IDBMNDEwLjc3NzA1NSA3OTkuNzMzMjM3IDE4MC41ODEwMzQgNzk5LjczMzIzN2MtNjMuNTYyMTk5IDAtMTE1LjA5ODAxMS01MS41MzM3LTExNS4wOTgwMTEtMTE1LjA5MzI5NUw2NS40ODMwMjMgMTY2LjcyMDExNmMwLTYzLjU1OTU5NSA1MS41MzU4MTItMTE1LjA5MzI5NSAxMTUuMDk4MDExLTExNS4wOTMyOTVsNjYxLjgxMjUzNyAwYzYzLjU2MTE3NiAwIDExNS4wOTgwMTEgNTEuNTMzNyAxMTUuMDk4MDExIDExNS4wOTMyOTVsMCA1MTcuOTE5ODI2Qzk1Ny40OTE1ODIgNzQ4LjE5ODUxMyA5MDUuOTU1NzcgNzk5LjczMzIzNyA4NDIuMzk0NTk1IDc5OS43MzMyMzd6TTU4My40MjQwNzEgOTE0LjgyNTUwOCA1ODMuNDI0MDcxIDc5OS43MzMyMzcgNDY4LjMyNjA2IDc5OS43MzMyMzcgNDY4LjMyNjA2IDkxNC44MjU1MDggNTgzLjQyNDA3MSA5MTQuODI1NTA4ek04OTkuOTQyNTc3IDE2Ni43MjAxMTZjMC0zMS43Nzk3OTctMjUuNzY3OTA2LTU3LjU0NjY0Ny01Ny41NDc5ODItNTcuNTQ2NjQ3TDE4MC41ODEwMzQgMTA5LjE3MzQ2OGMtMzEuNzgxMDk5IDAtNTcuNTQ5MDA1IDI1Ljc2Njg1LTU3LjU0OTAwNSA1Ny41NDY2NDdsMCA0MDIuODI2NTMyTDg5OS45NDI1NzcgNTY5LjU0NjY0NyA4OTkuOTQyNTc3IDE2Ni43MjAxMTZ6TTg5OS45NDI1NzcgNjI3LjA5MzI5NSAxMjMuMDMzMDUyIDYyNy4wOTMyOTVsMCA1Ny41NDY2NDdjMCAzMS43Nzk3OTcgMjUuNzY3OTA2IDU3LjU0NTYyNCA1Ny41NDkwMDUgNTcuNTQ1NjI0bDY2MS44MTI1MzcgMGMzMS43ODEwOTkgMCA1Ny41NDc5ODItMjUuNzY2ODUgNTcuNTQ3OTgyLTU3LjU0NTYyNEw4OTkuOTQyNTc3IDYyNy4wOTMyOTV6Ii8+PC9zdmc+" parent="1" vertex="1">
          <mxGeometry x="114.01" y="174" width="106" height="106" as="geometry" />
        </mxCell>
        <mxCell id="Q42ew3M5vbBd64VQrwt8-3" style="edgeStyle=orthogonalEdgeStyle;rounded=1;orthogonalLoop=1;jettySize=auto;html=1;exitX=0;exitY=0.75;exitDx=0;exitDy=0;entryX=1;entryY=0.5;entryDx=0;entryDy=0;fontColor=#4A919B;strokeColor=#4A919B;strokeWidth=3;startArrow=classic;startFill=1;" parent="1" source="zeDkDpAEbT0e0O8mL41E-2" target="zeDkDpAEbT0e0O8mL41E-1" edge="1">
          <mxGeometry relative="1" as="geometry" />
        </mxCell>
        <mxCell id="zeDkDpAEbT0e0O8mL41E-2" value="" style="shape=image;verticalLabelPosition=bottom;verticalAlign=top;imageAspect=0;aspect=fixed;image=data:image/svg+xml,PHN2ZyB4bWxuczp4bGluaz0iaHR0cDovL3d3dy53My5vcmcvMTk5OS94bGluayIgeG1sbnM9Imh0dHA6Ly93d3cudzMub3JnLzIwMDAvc3ZnIiBoZWlnaHQ9IjIwMCIgd2lkdGg9IjIwMCIgdmVyc2lvbj0iMS4xIiB2aWV3Qm94PSIwIDAgMTAyNCAxMDI0IiBjbGFzcz0iaWNvbiI+PGRlZnM+PHN0eWxlIHR5cGU9InRleHQvY3NzIj5AZm9udC1mYWNlIHsgZm9udC1mYW1pbHk6IGZlZWRiYWNrLWljb25mb250OyBzcmM6IHVybCgiLy9hdC5hbGljZG4uY29tL3QvZm9udF8xMDMxMTU4X3U2OXc4eWh4ZHUud29mZjI/dD0xNjMwMDMzNzU5OTQ0IikgZm9ybWF0KCJ3b2ZmMiIpLCB1cmwoIi8vYXQuYWxpY2RuLmNvbS90L2ZvbnRfMTAzMTE1OF91Njl3OHloeGR1LndvZmY/dD0xNjMwMDMzNzU5OTQ0IikgZm9ybWF0KCJ3b2ZmIiksIHVybCgiLy9hdC5hbGljZG4uY29tL3QvZm9udF8xMDMxMTU4X3U2OXc4eWh4ZHUudHRmP3Q9MTYzMDAzMzc1OTk0NCIpIGZvcm1hdCgidHJ1ZXR5cGUiKTsgfSYjeGE7PC9zdHlsZT48L2RlZnM+PHBhdGggZmlsbD0iIzRBOTE5QiIgZD0iTTk2MCA5NDRINjRjLTM1LjI5NiAwLTY0LTI4LjcwNC02NC02NFY2NTZjMC0zNS4yOTYgMjguNzA0LTY0IDY0LTY0aDg5NmMzNS4yOTYgMCA2NCAyOC43MDQgNjQgNjR2MjI0YzAgMzUuMjk2LTI4LjcwNCA2NC02NCA2NHpNNjQgNjI0Yy0xNy42NDggMC0zMiAxNC4zNTItMzIgMzJ2MjI0YzAgMTcuNjQ4IDE0LjM1MiAzMiAzMiAzMmg4OTZjMTcuNjQ4IDAgMzItMTQuMzUyIDMyLTMyVjY1NmMwLTE3LjY0OC0xNC4zNTItMzItMzItMzJINjR6Ii8+PHBhdGggZmlsbD0iIzRBOTE5QiIgZD0iTTI0MCAxMDA4SDExMmExNiAxNiAwIDAgMS0xNi0xNnYtNjRhMTYgMTYgMCAwIDEgMTYtMTZoMTI4YTE2IDE2IDAgMCAxIDE2IDE2djY0YTE2IDE2IDAgMCAxLTE2IDE2eiBtLTExMi0zMmg5NnYtMzJIMTI4djMyek05MTIgMTAwOGgtMTI4YTE2IDE2IDAgMCAxLTE2LTE2di02NGExNiAxNiAwIDAgMSAxNi0xNmgxMjhhMTYgMTYgMCAwIDEgMTYgMTZ2NjRhMTYgMTYgMCAwIDEtMTYgMTZ6IG0tMTEyLTMyaDk2di0zMmgtOTZ2MzJ6TTg1Ni42NTYgNDYwLjE2YTE1Ljk4NCAxNS45ODQgMCAwIDEtNi44MTYtMzAuNDk2QzkxNi43NjggMzk4LjI3MiA5NjAgMzMwLjA5NiA5NjAgMjU2YzAtMTA1Ljg3Mi04Ni4xMjgtMTkyLTE5Mi0xOTJTNTc2IDE1MC4xMjggNTc2IDI1NmMwIDc0LjA4IDQzLjIzMiAxNDIuMjcyIDExMC4xNiAxNzMuNjY0YTE2IDE2IDAgMCAxLTEzLjYgMjguOTc2QzU5NC40OCA0MjEuOTg0IDU0NCAzNDIuNDQ4IDU0NCAyNTZjMC0xMjMuNTIgMTAwLjQ4LTIyNCAyMjQtMjI0czIyNCAxMDAuNDggMjI0IDIyNGMwIDg2LjQ0OC01MC40NjQgMTY1Ljk4NC0xMjguNTYgMjAyLjY0YTE1Ljk2OCAxNS45NjggMCAwIDEtNi43ODQgMS41MnoiLz48cGF0aCBmaWxsPSIjNEE5MTlCIiBkPSJNODUzLjI5NiAzODcuODRhMTYgMTYgMCAwIDEtOS40ODgtMjguODk2QTEyOC4yNCAxMjguMjQgMCAwIDAgODk2IDI1NmMwLTcwLjU3Ni01Ny40MjQtMTI4LTEyOC0xMjhzLTEyOCA1Ny40MjQtMTI4IDEyOGExMjguMjQgMTI4LjI0IDAgMCAwIDUyLjE5MiAxMDIuOTQ0IDE2IDE2IDAgMCAxLTE4Ljk0NCAyNS43OTJBMTYwLjMzNiAxNjAuMzM2IDAgMCAxIDYwOCAyNTZjMC04OC4yMjQgNzEuNzc2LTE2MCAxNjAtMTYwczE2MCA3MS43NzYgMTYwIDE2MGMwIDUwLjYwOC0yNC4zODQgOTguNzItNjUuMjQ4IDEyOC43MzZhMTUuOTIgMTUuOTIgMCAwIDEtOS40NCAzLjEwNHoiLz48cGF0aCBmaWxsPSIjNEE5MTlCIiBkPSJNODQ3LjY5NiAyNzYuNDhhMTYgMTYgMCAwIDEtMTUuNjY0LTE5LjM5MkM4MzIgMjIwLjY4OCA4MDMuMzEyIDE5MiA3NjggMTkycy02NCAyOC43MDQtNjQgNjRjMS44NzIgOC42NC0zLjYzMiAxNy42OTYtMTIuMjcyIDE5LjU2OC04LjU5MiAxLjg4OC0xNy4xODQtMy4wNC0xOS4wNTYtMTEuNjhDNjcyIDI2MC43MzYgNjcyIDI1Ny44ODggNjcyIDI1NmMwLTUyLjk0NCA0My4wNTYtOTYgOTYtOTZzOTYgNDMuMDU2IDk2IDk2YzAgMS45MDQgMCA0Ljc1Mi0wLjY3MiA3Ljg3MmExNi4wMTYgMTYuMDE2IDAgMCAxLTE1LjYzMiAxMi42MDh6Ii8+PHBhdGggZmlsbD0iIzRBOTE5QiIgZD0iTTgwMC4zMiA2MjRINzM2YTE1LjkzNiAxNS45MzYgMCAwIDEtMTEuNTY4LTQuOTYgMTUuOTA0IDE1LjkwNCAwIDAgMS00LjQxNi0xMS43NmwxNS4yNjQtMzM2LjAxNmEzMi43MzYgMzIuNzM2IDAgMCAxIDY1LjQyNCAwbDE1LjEzNiAzMzIuODMyQTE2IDE2IDAgMCAxIDgwMC4zMiA2MjR6IG0tNDcuNTItMzJoMzAuNDQ4bC0xNC41MTItMzE5LjI5Nkw3NTIuOCA1OTJ6TTE0NCA4MTZjLTI2LjQ2NCAwLTQ4LTIxLjUzNi00OC00OHMyMS41MzYtNDggNDgtNDggNDggMjEuNTM2IDQ4IDQ4LTIxLjUzNiA0OC00OCA0OHogbTAtNjRhMTYgMTYgMCAxIDAgMC4wMTYgMzIuMDE2QTE2IDE2IDAgMCAwIDE0NCA3NTJ6TTI3MiA4MTZjLTI2LjQ2NCAwLTQ4LTIxLjUzNi00OC00OHMyMS41MzYtNDggNDgtNDggNDggMjEuNTM2IDQ4IDQ4LTIxLjUzNiA0OC00OCA0OHogbTAtNjRhMTYgMTYgMCAxIDAgMC4wMTYgMzIuMDE2QTE2IDE2IDAgMCAwIDI3MiA3NTJ6TTQwMCA4MTZjLTI2LjQ2NCAwLTQ4LTIxLjUzNi00OC00OHMyMS41MzYtNDggNDgtNDggNDggMjEuNTM2IDQ4IDQ4LTIxLjUzNiA0OC00OCA0OHogbTAtNjRhMTYgMTYgMCAxIDAgMC4wMTYgMzIuMDE2QTE2IDE2IDAgMCAwIDQwMCA3NTJ6TTk0NCA4ODBjLTQuMTYgMC04LjMyLTEuNzYtMTEuMzYtNC42NEExNi44IDE2LjggMCAwIDEgOTI4IDg2NGMwLTQuMzIgMS43Ni04LjMyIDQuNjQtMTEuMzYgNS45Mi01LjkyIDE2LjgtNS45MiAyMi43MiAwIDIuODggMy4wNCA0LjY0IDcuMiA0LjY0IDExLjM2cy0xLjc2IDguMzItNC42NCAxMS4zNmMtMy4wNCAyLjg4LTcuMiA0LjY0LTExLjM2IDQuNjR6TTg4MCA4ODBjLTQuMTYgMC04LjMyLTEuNzYtMTEuMzYtNC42NC0yLjg4LTMuMDQtNC42NC03LjItNC42NC0xMS4zNnMxLjc2LTguMzIgNC42NC0xMS4zNmM1LjkyLTUuOTIgMTYuNjQtNS45MiAyMi43MiAwIDIuODggMy4wNCA0LjY0IDcuMiA0LjY0IDExLjM2cy0xLjc2IDguMzItNC42NCAxMS4zNmMtMy4wNCAzLjA0LTcuMiA0LjY0LTExLjM2IDQuNjR6TTgxNiA4ODBjLTQuMzIgMC04LjMyLTEuNzYtMTEuMzYtNC42NC0yLjg4LTMuMDQtNC42NC03LjItNC42NC0xMS4zNnMxLjc2LTguMzIgNC42NC0xMS4zNmM1LjkyLTUuOTIgMTYuOC01LjkyIDIyLjcyIDAgMi44OCAzLjA0IDQuNjQgNy4yIDQuNjQgMTEuMzZzLTEuNzYgOC4zMi00LjY0IDExLjM2Yy0zLjA0IDIuODgtNy4yIDQuNjQtMTEuMzYgNC42NHpNNzUyIDg4MGMtNC4xNiAwLTguMzItMS43Ni0xMS4zNi00LjY0LTIuODgtMy4wNC00LjY0LTcuMi00LjY0LTExLjM2czEuNzYtOC4zMiA0LjY0LTExLjM2YzYuMDgtNS45MiAxNi42NC01LjkyIDIyLjcyIDAgMi44OCAzLjA0IDQuNjQgNy4yIDQuNjQgMTEuMzZzLTEuNzYgOC4zMi00LjY0IDExLjM2Yy0zLjA0IDIuODgtNy4yIDQuNjQtMTEuMzYgNC42NHpNOTQ0IDgxNmMtNC4xNiAwLTguMzItMS43Ni0xMS4zNi00LjY0QTE2LjggMTYuOCAwIDAgMSA5MjggODAwYzAtNC4zMiAxLjc2LTguMzIgNC42NC0xMS4zNiA1LjkyLTUuOTIgMTYuOC01LjkyIDIyLjcyIDAgMi44OCAzLjA0IDQuNjQgNy4yIDQuNjQgMTEuMzZzLTEuNzYgOC4zMi00LjY0IDExLjM2Yy0zLjA0IDIuODgtNy4yIDQuNjQtMTEuMzYgNC42NHpNODgwIDgxNmMtNC4xNiAwLTguMzItMS43Ni0xMS4zNi00LjY0QTE2LjggMTYuOCAwIDAgMSA4NjQgODAwYzAtNC4zMiAxLjc2LTguMzIgNC42NC0xMS4zNiA1LjkyLTUuOTIgMTYuNjQtNS45MiAyMi43MiAwIDIuODggMy4wNCA0LjY0IDcuMiA0LjY0IDExLjM2cy0xLjc2IDguMzItNC42NCAxMS4zNmMtMy4wNCAyLjg4LTcuMiA0LjY0LTExLjM2IDQuNjR6TTgxNiA4MTZjLTQuMTYgMC04LjMyLTEuNzYtMTEuMzYtNC42NC0yLjg4LTMuMDQtNC42NC03LjItNC42NC0xMS4zNnMxLjc2LTguMzIgNC42NC0xMS4zNmM1LjkyLTUuOTIgMTYuOC01LjkyIDIyLjcyIDAgMi44OCAzLjA0IDQuNjQgNy4yIDQuNjQgMTEuMzZzLTEuNzYgOC4zMi00LjY0IDExLjM2Yy0zLjA0IDIuODgtNy4yIDQuNjQtMTEuMzYgNC42NHpNOTQ0IDc1MmMtNC4xNiAwLTguMzItMS43Ni0xMS4zNi00LjY0QTE2LjggMTYuOCAwIDAgMSA5MjggNzM2YzAtNC4zMiAxLjc2LTguMzIgNC42NC0xMS4zNiA1LjkyLTUuOTIgMTYuOC01LjkyIDIyLjcyIDAgMi44OCAzLjA0IDQuNjQgNy4yIDQuNjQgMTEuMzZzLTEuNzYgOC4zMi00LjY0IDExLjM2Yy0zLjA0IDIuODgtNy4yIDQuNjQtMTEuMzYgNC42NHpNODgwIDc1MmMtNC4xNiAwLTguMzItMS43Ni0xMS4zNi00LjY0QTE2LjggMTYuOCAwIDAgMSA4NjQgNzM2YzAtNC4zMiAxLjc2LTguMzIgNC42NC0xMS4zNiA1LjkyLTUuOTIgMTYuNjQtNS45MiAyMi43MiAwIDIuODggMy4wNCA0LjY0IDcuMiA0LjY0IDExLjM2cy0xLjc2IDguMzItNC42NCAxMS4zNmMtMy4wNCAyLjg4LTcuMiA0LjY0LTExLjM2IDQuNjR6TTk0NCA2ODhjLTQuMTYgMC04LjMyLTEuNzYtMTEuMzYtNC42NGExNi4xNiAxNi4xNiAwIDAgMSAwLTIyLjcyYzUuOTItNS45MiAxNi44LTUuOTIgMjIuNzIgMCAyLjg4IDMuMDQgNC42NCA3LjA0IDQuNjQgMTEuMzYgMCA0LjE2LTEuNzYgOC4zMi00LjY0IDExLjM2LTMuMDQgMi44OC03LjIgNC42NC0xMS4zNiA0LjY0eiIvPjwvc3ZnPg==" parent="1" vertex="1">
          <mxGeometry x="406" y="137" width="119" height="119" as="geometry" />
        </mxCell>
        <mxCell id="zeDkDpAEbT0e0O8mL41E-3" value="&lt;font style=&quot;font-size: 26px;&quot; color=&quot;#4a919b&quot;&gt;公有IP&lt;br&gt;20.20.20.20&lt;/font&gt;" style="text;html=1;strokeColor=none;fillColor=none;align=center;verticalAlign=middle;whiteSpace=wrap;rounded=0;" parent="1" vertex="1">
          <mxGeometry x="403" y="267" width="125" height="61" as="geometry" />
        </mxCell>
        <mxCell id="Q42ew3M5vbBd64VQrwt8-11" style="edgeStyle=orthogonalEdgeStyle;rounded=1;orthogonalLoop=1;jettySize=auto;html=1;exitX=0.5;exitY=0;exitDx=0;exitDy=0;strokeColor=#4A919B;strokeWidth=3;fontColor=#4A919B;startArrow=classic;startFill=1;gradientColor=none;" parent="1" source="SufpE41zScbMJfQ0J4Cx-1" edge="1">
          <mxGeometry relative="1" as="geometry">
            <mxPoint x="808.8181818181818" y="171.00272727272724" as="targetPoint" />
          </mxGeometry>
        </mxCell>
        <mxCell id="SufpE41zScbMJfQ0J4Cx-1" value="" style="shape=image;verticalLabelPosition=bottom;verticalAlign=top;imageAspect=0;image=data:image/svg+xml,PHN2ZyB4bWxuczp4bGluaz0iaHR0cDovL3d3dy53My5vcmcvMTk5OS94bGluayIgeG1sbnM9Imh0dHA6Ly93d3cudzMub3JnLzIwMDAvc3ZnIiBoZWlnaHQ9IjIwMCIgd2lkdGg9IjIwMCIgdmVyc2lvbj0iMS4xIiB2aWV3Qm94PSIwIDAgMTAyNCAxMDI0IiBjbGFzcz0iaWNvbiI+PGRlZnM+PHN0eWxlIHR5cGU9InRleHQvY3NzIj5AZm9udC1mYWNlIHsgZm9udC1mYW1pbHk6IGZlZWRiYWNrLWljb25mb250OyBzcmM6IHVybCgiLy9hdC5hbGljZG4uY29tL3QvZm9udF8xMDMxMTU4X3U2OXc4eWh4ZHUud29mZjI/dD0xNjMwMDMzNzU5OTQ0IikgZm9ybWF0KCJ3b2ZmMiIpLCB1cmwoIi8vYXQuYWxpY2RuLmNvbS90L2ZvbnRfMTAzMTE1OF91Njl3OHloeGR1LndvZmY/dD0xNjMwMDMzNzU5OTQ0IikgZm9ybWF0KCJ3b2ZmIiksIHVybCgiLy9hdC5hbGljZG4uY29tL3QvZm9udF8xMDMxMTU4X3U2OXc4eWh4ZHUudHRmP3Q9MTYzMDAzMzc1OTk0NCIpIGZvcm1hdCgidHJ1ZXR5cGUiKTsgfSYjeGE7PC9zdHlsZT48L2RlZnM+PHBhdGggZmlsbD0iIzRBOTE5QiIgZD0iTTAgNzI4djEzNmMwIDM1LjMgMjguNyA2NCA2NCA2NGg4OTZjMzUuMyAwIDY0LTI4LjcgNjQtNjRWNzI4YzAtNC40LTMuNi04LTgtOEg4Yy00LjQgMC04IDMuNi04IDh6IG03NzQgOTZjMCA0LjQtMy42IDgtOCA4SDQyNGMtNC40IDAtOC0zLjYtOC04di00OGMwLTQuNCAzLjYtOCA4LThoMzQyYzQuNCAwIDggMy42IDggOHY0OHogbTEyMiAwYzAgNC40LTMuNiA4LTggOGgtNDhjLTQuNCAwLTgtMy42LTgtOHYtNDhjMC00LjQgMy42LTggOC04aDQ4YzQuNCAwIDggMy42IDggOHY0OHpNMCA1MzZ2MTQ0YzAgNC40IDMuNiA4IDggOGgxMDA4YzQuNCAwIDgtMy42IDgtOFY1MzZjMC00LjQtMy42LTgtOC04SDhjLTQuNCAwLTggMy42LTggOHogbTc3NCA5NmMwIDQuNC0zLjYgOC04IDhINDI0Yy00LjQgMC04LTMuNi04LTh2LTQ4YzAtNC40IDMuNi04IDgtOGgzNDJjNC40IDAgOCAzLjYgOCA4djQ4eiBtMTIyIDBjMCA0LjQtMy42IDgtOCA4aC00OGMtNC40IDAtOC0zLjYtOC04di00OGMwLTQuNCAzLjYtOCA4LThoNDhjNC40IDAgOCAzLjYgOCA4djQ4ek0wIDM0NHYxNDRjMCA0LjQgMy42IDggOCA4aDEwMDhjNC40IDAgOC0zLjYgOC04VjM0NGMwLTQuNC0zLjYtOC04LThIOGMtNC40IDAtOCAzLjYtOCA4eiBtNzc0IDk2YzAgNC40LTMuNiA4LTggOEg0MjRjLTQuNCAwLTgtMy42LTgtOHYtNDhjMC00LjQgMy42LTggOC04aDM0MmM0LjQgMCA4IDMuNiA4IDh2NDh6IG0xMjIgMGMwIDQuNC0zLjYgOC04IDhoLTQ4Yy00LjQgMC04LTMuNi04LTh2LTQ4YzAtNC40IDMuNi04IDgtOGg0OGM0LjQgMCA4IDMuNiA4IDh2NDh6TTk2MCA5Nkg2NGMtMzUuMyAwLTY0IDI4LjctNjQgNjR2MTM2YzAgNC40IDMuNiA4IDggOGgxMDA4YzQuNCAwIDgtMy42IDgtOFYxNjBjMC0zNS4zLTI4LjctNjQtNjQtNjR6TTc3NCAyNDhjMCA0LjQtMy42IDgtOCA4SDQyNGMtNC40IDAtOC0zLjYtOC04di00OGMwLTQuNCAzLjYtOCA4LThoMzQyYzQuNCAwIDggMy42IDggOHY0OHogbTEyMiAwYzAgNC40LTMuNiA4LTggOGgtNDhjLTQuNCAwLTgtMy42LTgtOHYtNDhjMC00LjQgMy42LTggOC04aDQ4YzQuNCAwIDggMy42IDggOHY0OHoiLz48L3N2Zz4=" parent="1" vertex="1">
          <mxGeometry x="751" y="265.73" width="115" height="115" as="geometry" />
        </mxCell>
        <mxCell id="SufpE41zScbMJfQ0J4Cx-2" value="" style="shape=flexArrow;endArrow=classic;startArrow=none;html=1;rounded=0;fontSize=26;strokeColor=none;fillColor=#F19C99;startFill=0;dashed=1;gradientColor=none;" parent="1" edge="1">
          <mxGeometry width="100" height="100" relative="1" as="geometry">
            <mxPoint x="717" y="327.73" as="sourcePoint" />
            <mxPoint x="603.9999999999998" y="327.73" as="targetPoint" />
          </mxGeometry>
        </mxCell>
        <mxCell id="SufpE41zScbMJfQ0J4Cx-3" value="&lt;font style=&quot;font-size: 26px;&quot; color=&quot;#4a919b&quot;&gt;公有IP&lt;br&gt;30.30.30.30&lt;/font&gt;" style="text;html=1;strokeColor=none;fillColor=none;align=center;verticalAlign=middle;whiteSpace=wrap;rounded=0;" parent="1" vertex="1">
          <mxGeometry x="749" y="374.73" width="125" height="61" as="geometry" />
        </mxCell>
        <mxCell id="FatAu2MpOtm96mpd-anQ-3" value="&lt;font style=&quot;font-size: 23px;&quot;&gt;Track Table&lt;/font&gt;" style="rounded=1;whiteSpace=wrap;html=1;fontSize=23;fillColor=#6DB5A8;" parent="1" vertex="1">
          <mxGeometry x="258" y="410" width="480" height="60" as="geometry" />
        </mxCell>
        <mxCell id="FatAu2MpOtm96mpd-anQ-4" value="&lt;span style=&quot;font-size: 26px;&quot;&gt;192.168.30.&lt;font color=&quot;#ea6b66&quot;&gt;5:5000&lt;/font&gt; -&amp;gt; 20.20.20.20&lt;font color=&quot;#ea6b66&quot;&gt;:6000&lt;/font&gt;&lt;/span&gt;&lt;span style=&quot;font-size: 26px;&quot;&gt;&lt;br&gt;&lt;/span&gt;" style="rounded=1;whiteSpace=wrap;html=1;fontSize=23;fillColor=#B9E0A5;" parent="1" vertex="1">
          <mxGeometry x="258" y="469.99999999999994" width="480" height="75" as="geometry" />
        </mxCell>
        <mxCell id="FatAu2MpOtm96mpd-anQ-7" value="" style="shape=flexArrow;endArrow=classic;html=1;rounded=0;fontColor=#000000;strokeColor=none;fillColor=#4A919B;" parent="1" edge="1">
          <mxGeometry width="50" height="50" relative="1" as="geometry">
            <mxPoint x="466.08" y="344.55" as="sourcePoint" />
            <mxPoint x="466.08" y="394.55" as="targetPoint" />
          </mxGeometry>
        </mxCell>
        <mxCell id="FatAu2MpOtm96mpd-anQ-13" value="" style="shape=image;verticalLabelPosition=bottom;labelBackgroundColor=default;verticalAlign=top;aspect=fixed;imageAspect=0;image=data:image/svg+xml,PHN2ZyB4bWxuczp4bGluaz0iaHR0cDovL3d3dy53My5vcmcvMTk5OS94bGluayIgeG1sbnM9Imh0dHA6Ly93d3cudzMub3JnLzIwMDAvc3ZnIiBoZWlnaHQ9IjIwMCIgd2lkdGg9IjIwMCIgdmVyc2lvbj0iMS4xIiB2aWV3Qm94PSIwIDAgMTAyNCAxMDI0IiBjbGFzcz0iaWNvbiI+PHBhdGggZmlsbD0iIzRBOTE5QiIgZD0iTTI4NS44NjY2NjcgMzkyLjUzMzMzM2wyMzQuNjY2NjY2IDEzNi41MzMzMzQgMjI2LjEzMzMzNC0xMzIuMjY2NjY3TDUxMiAyNjQuNTMzMzMzbC0yMjYuMTMzMzMzIDEyOHogbS0yOS44NjY2NjcgODUuMzMzMzM0VjY0MGwyMTMuMzMzMzMzIDEyMy43MzMzMzN2LTE1Ny44NjY2NjZsLTIxMy4zMzMzMzMtMTI4eiBtNTEyIDQuMjY2NjY2bC0yMTMuMzMzMzMzIDEyMy43MzMzMzR2MTUzLjZsMjEzLjMzMzMzMy0xMjMuNzMzMzM0di0xNTMuNnpNNTEyIDE3MC42NjY2NjdsMzQxLjMzMzMzMyAxOTYuMjY2NjY2VjY4Mi42NjY2NjdsLTM0MS4zMzMzMzMgMTk2LjI2NjY2NkwxNzAuNjY2NjY3IDY4Mi42NjY2NjdWMzY2LjkzMzMzM0w1MTIgMTcwLjY2NjY2N3oiLz48L3N2Zz4=;" parent="1" vertex="1">
          <mxGeometry x="745" y="191.73" width="58" height="58" as="geometry" />
        </mxCell>
        <mxCell id="igRrqwcIJaxtRvZD1uEe-1" value="" style="shape=image;verticalLabelPosition=bottom;labelBackgroundColor=default;verticalAlign=top;aspect=fixed;imageAspect=0;image=data:image/svg+xml,PHN2ZyB4bWxuczp4bGluaz0iaHR0cDovL3d3dy53My5vcmcvMTk5OS94bGluayIgeG1sbnM9Imh0dHA6Ly93d3cudzMub3JnLzIwMDAvc3ZnIiBoZWlnaHQ9IjIwMCIgd2lkdGg9IjIwMCIgdmVyc2lvbj0iMS4xIiB2aWV3Qm94PSIwIDAgMTAyNCAxMDI0IiBjbGFzcz0iaWNvbiI+PHBhdGggZmlsbD0iIzRBOTE5QiIgZD0iTTY5OC43IDY0LjNIMzI4LjhjLTUzLjcgMC05Ny40IDQzLjctOTcuNCA5Ny40djcwMC45YzAgNTMuNyA0My43IDk3LjQgOTcuNCA5Ny40aDM2OS45YzUzLjcgMCA5Ny40LTQzLjcgOTcuNC05Ny40VjE2MS43YzAtNTMuNy00My43LTk3LjQtOTcuNC05Ny40eiBtNTguNCA3OTguM2MwIDMyLjItMjYuMiA1OC40LTU4LjQgNTguNEgzMjguOGMtMzIuMiAwLTU4LjQtMjYuMi01OC40LTU4LjRWMTYxLjdjMC0zMi4yIDI2LjItNTguNCA1OC40LTU4LjRoMzY5LjljMzIuMiAwIDU4LjQgMjYuMiA1OC40IDU4LjR2NzAwLjl6Ii8+PHBhdGggZmlsbD0iIzRBOTE5QiIgZD0iTTI5Mi4xIDc4NC42aDQ0My40VjIyMC4xSDI5Mi4xdjU2NC41eiBtMTkuNC01NDUuMUg3MTZ2NTI1LjZIMzExLjVWMjM5LjV6TTUxMy44IDgwNC4zYy0yNi44IDAtNDguNiAyMS44LTQ4LjYgNDguNnMyMS44IDQ4LjYgNDguNiA0OC42IDQ4LjYtMjEuOCA0OC42LTQ4LjYtMjEuOC00OC42LTQ4LjYtNDguNnogbTAgNzcuOGMtMTYuMSAwLTI5LjItMTMuMS0yOS4yLTI5LjJzMTMuMS0yOS4yIDI5LjItMjkuMiAyOS4yIDEzLjEgMjkuMiAyOS4yLTEzLjEgMjkuMi0yOS4yIDI5LjJ6Ii8+PC9zdmc+;" parent="1" vertex="1">
          <mxGeometry x="117.72999999999999" y="328" width="98.55" height="98.55" as="geometry" />
        </mxCell>
        <mxCell id="igRrqwcIJaxtRvZD1uEe-2" value="&lt;font color=&quot;#4a919b&quot; style=&quot;font-size: 26px;&quot;&gt;192.168.30.&lt;/font&gt;&lt;font style=&quot;font-size: 26px;&quot;&gt;&lt;font color=&quot;#4a919b&quot;&gt;6&lt;/font&gt;&lt;br&gt;&lt;/font&gt;" style="text;html=1;strokeColor=none;fillColor=none;align=center;verticalAlign=middle;whiteSpace=wrap;rounded=0;" parent="1" vertex="1">
          <mxGeometry x="97" y="424" width="140" height="59" as="geometry" />
        </mxCell>
        <mxCell id="Q42ew3M5vbBd64VQrwt8-12" style="edgeStyle=orthogonalEdgeStyle;rounded=1;orthogonalLoop=1;jettySize=auto;html=1;exitX=0;exitY=0.5;exitDx=0;exitDy=0;entryX=0.5;entryY=0;entryDx=0;entryDy=0;strokeColor=#4A919B;strokeWidth=3;fontColor=#4A919B;startArrow=classic;startFill=1;gradientColor=none;" parent="1" source="Q42ew3M5vbBd64VQrwt8-1" target="zeDkDpAEbT0e0O8mL41E-2" edge="1">
          <mxGeometry relative="1" as="geometry" />
        </mxCell>
        <mxCell id="Q42ew3M5vbBd64VQrwt8-1" value="" style="shape=image;verticalLabelPosition=bottom;verticalAlign=top;imageAspect=0;image=data:image/svg+xml,PHN2ZyB4bWxuczp4bGluaz0iaHR0cDovL3d3dy53My5vcmcvMTk5OS94bGluayIgeG1sbnM9Imh0dHA6Ly93d3cudzMub3JnLzIwMDAvc3ZnIiBoZWlnaHQ9IjIwMCIgd2lkdGg9IjIwMCIgdmVyc2lvbj0iMS4xIiB2aWV3Qm94PSIwIDAgMTAyNCAxMDI0IiBjbGFzcz0iaWNvbiI+PGRlZnM+PHN0eWxlIHR5cGU9InRleHQvY3NzIj5AZm9udC1mYWNlIHsgZm9udC1mYW1pbHk6IGZlZWRiYWNrLWljb25mb250OyBzcmM6IHVybCgiLy9hdC5hbGljZG4uY29tL3QvZm9udF8xMDMxMTU4X3U2OXc4eWh4ZHUud29mZjI/dD0xNjMwMDMzNzU5OTQ0IikgZm9ybWF0KCJ3b2ZmMiIpLCB1cmwoIi8vYXQuYWxpY2RuLmNvbS90L2ZvbnRfMTAzMTE1OF91Njl3OHloeGR1LndvZmY/dD0xNjMwMDMzNzU5OTQ0IikgZm9ybWF0KCJ3b2ZmIiksIHVybCgiLy9hdC5hbGljZG4uY29tL3QvZm9udF8xMDMxMTU4X3U2OXc4eWh4ZHUudHRmP3Q9MTYzMDAzMzc1OTk0NCIpIGZvcm1hdCgidHJ1ZXR5cGUiKTsgfSYjeGE7PC9zdHlsZT48L2RlZnM+PHBhdGggZmlsbD0iIzRBOTE5QiIgZD0iTTAgNzI4djEzNmMwIDM1LjMgMjguNyA2NCA2NCA2NGg4OTZjMzUuMyAwIDY0LTI4LjcgNjQtNjRWNzI4YzAtNC40LTMuNi04LTgtOEg4Yy00LjQgMC04IDMuNi04IDh6IG03NzQgOTZjMCA0LjQtMy42IDgtOCA4SDQyNGMtNC40IDAtOC0zLjYtOC04di00OGMwLTQuNCAzLjYtOCA4LThoMzQyYzQuNCAwIDggMy42IDggOHY0OHogbTEyMiAwYzAgNC40LTMuNiA4LTggOGgtNDhjLTQuNCAwLTgtMy42LTgtOHYtNDhjMC00LjQgMy42LTggOC04aDQ4YzQuNCAwIDggMy42IDggOHY0OHpNMCA1MzZ2MTQ0YzAgNC40IDMuNiA4IDggOGgxMDA4YzQuNCAwIDgtMy42IDgtOFY1MzZjMC00LjQtMy42LTgtOC04SDhjLTQuNCAwLTggMy42LTggOHogbTc3NCA5NmMwIDQuNC0zLjYgOC04IDhINDI0Yy00LjQgMC04LTMuNi04LTh2LTQ4YzAtNC40IDMuNi04IDgtOGgzNDJjNC40IDAgOCAzLjYgOCA4djQ4eiBtMTIyIDBjMCA0LjQtMy42IDgtOCA4aC00OGMtNC40IDAtOC0zLjYtOC04di00OGMwLTQuNCAzLjYtOCA4LThoNDhjNC40IDAgOCAzLjYgOCA4djQ4ek0wIDM0NHYxNDRjMCA0LjQgMy42IDggOCA4aDEwMDhjNC40IDAgOC0zLjYgOC04VjM0NGMwLTQuNC0zLjYtOC04LThIOGMtNC40IDAtOCAzLjYtOCA4eiBtNzc0IDk2YzAgNC40LTMuNiA4LTggOEg0MjRjLTQuNCAwLTgtMy42LTgtOHYtNDhjMC00LjQgMy42LTggOC04aDM0MmM0LjQgMCA4IDMuNiA4IDh2NDh6IG0xMjIgMGMwIDQuNC0zLjYgOC04IDhoLTQ4Yy00LjQgMC04LTMuNi04LTh2LTQ4YzAtNC40IDMuNi04IDgtOGg0OGM0LjQgMCA4IDMuNiA4IDh2NDh6TTk2MCA5Nkg2NGMtMzUuMyAwLTY0IDI4LjctNjQgNjR2MTM2YzAgNC40IDMuNiA4IDggOGgxMDA4YzQuNCAwIDgtMy42IDgtOFYxNjBjMC0zNS4zLTI4LjctNjQtNjQtNjR6TTc3NCAyNDhjMCA0LjQtMy42IDgtOCA4SDQyNGMtNC40IDAtOC0zLjYtOC04di00OGMwLTQuNCAzLjYtOCA4LThoMzQyYzQuNCAwIDggMy42IDggOHY0OHogbTEyMiAwYzAgNC40LTMuNiA4LTggOGgtNDhjLTQuNCAwLTgtMy42LTgtOHYtNDhjMC00LjQgMy42LTggOC04aDQ4YzQuNCAwIDggMy42IDggOHY0OHoiLz48L3N2Zz4=" parent="1" vertex="1">
          <mxGeometry x="748" y="15" width="115" height="115" as="geometry" />
        </mxCell>
        <mxCell id="Q42ew3M5vbBd64VQrwt8-6" value="" style="shape=image;verticalLabelPosition=bottom;labelBackgroundColor=default;verticalAlign=top;aspect=fixed;imageAspect=0;image=data:image/svg+xml,PHN2ZyB4bWxuczp4bGluaz0iaHR0cDovL3d3dy53My5vcmcvMTk5OS94bGluayIgeG1sbnM9Imh0dHA6Ly93d3cudzMub3JnLzIwMDAvc3ZnIiBoZWlnaHQ9IjIwMCIgd2lkdGg9IjIwMCIgdmVyc2lvbj0iMS4xIiB2aWV3Qm94PSIwIDAgMTAyNCAxMDI0IiBjbGFzcz0iaWNvbiI+PHBhdGggZmlsbD0iI0UyMkQyRCIgZD0iTTYzOC4yOTYgNDYxTDc1MS4zMDQgMzQ4YTM5LjM2IDM5LjM2IDAgMCAwIDAtNTUuNjY0TDcwOC4xNiAyNDkuMmEzOS4zNiAzOS4zNiAwIDAgMC01NS42NTYgMEw1MzkuNTA0IDM2Mi4xOTIgNDI2LjQ4OCAyNDkuMTg0YTM5LjM2IDM5LjM2IDAgMCAwLTU1LjY2NCAwLjAwOGwtNDMuMTM2IDQzLjEyOGEzOS4zNTIgMzkuMzUyIDAgMCAwIDAgNTUuNjY0bDExMy4wMDggMTEzLjAwOC0xMTMuMDA4IDExMy4wMTZhMzkuMzUyIDM5LjM1MiAwIDAgMCAwIDU1LjY2NGw0My4xMzYgNDMuMTUyYTM5LjM4NCAzOS4zODQgMCAwIDAgNTUuNjY0IDBsMTEzLjAwOC0xMTMuMDE2IDExMyAxMTMuMDE2YTM5LjM5MiAzOS4zOTIgMCAwIDAgNTUuNjcyIDBsNDMuMTQ0LTQzLjE1MmEzOS4zNzYgMzkuMzc2IDAgMCAwIDAtNTUuNjcyTDYzOC4yOTYgNDYxeiIvPjxwYXRoIGZpbGw9IiNBRjM3MzciIGQ9Ik02ODAuMzM2IDY5Mi4zMzZhNDcuMTIgNDcuMTIgMCAwIDEtMzMuNDk2LTEzLjg1Nkw1MzkuNTA0IDU3MS4xMmwtMTA3LjM2IDEwNy4zNmMtOC45NDQgOC45MzYtMjAuODMyIDEzLjg1Ni0zMy40ODggMTMuODU2cy0yNC41NDQtNC45Mi0zMy40ODgtMTMuODU2bC00My4xNDQtNDMuMTUyYTQ3LjA0IDQ3LjA0IDAgMCAxLTEzLjg3Mi0zMy40OTZjMC0xMi42NDggNC45MjgtMjQuNTQ0IDEzLjg3Mi0zMy40ODhsMTA3LjM1Mi0xMDcuMzYtMTA3LjM0NC0xMDcuMzQ0YTQ3LjA0IDQ3LjA0IDAgMCAxLTEzLjg3Mi0zMy40ODhjMC0xMi42NTYgNC45MjgtMjQuNTQ0IDEzLjg3Mi0zMy40OTZsNDMuMTM2LTQzLjEyOGE0Ny4wMjQgNDcuMDI0IDAgMCAxIDMzLjQ5Ni0xMy44NzJjMTIuNjQ4IDAgMjQuNTM2IDQuOTI4IDMzLjQ4IDEzLjg2NGwxMDcuMzYgMTA3LjM2IDEwNy4zNDQtMTA3LjMzNmM4LjkzNi04Ljk0NCAyMC44MzItMTMuODY0IDMzLjQ4OC0xMy44NjRzMjQuNTQ0IDQuOTIgMzMuNDg4IDEzLjg2NGw0My4xNTIgNDMuMTM2YTQ3LjQxNiA0Ny40MTYgMCAwIDEgMCA2Ni45NzZMNjQ5LjYwOCA0NjFsMTA3LjM2IDEwNy4zNDRhNDcuNDA4IDQ3LjQwOCAwIDAgMSAwIDY2Ljk4NGwtNDMuMTQ0IDQzLjE1MmE0Ny4wODggNDcuMDg4IDAgMCAxLTMzLjQ4OCAxMy44NTZ6IG0tMTQwLjgzMi0xNDMuODRMNjU4LjE2IDY2Ny4xNjhjMTEuODQgMTEuODMyIDMyLjUxMiAxMS44MzIgNDQuMzYgMGw0My4xNDQtNDMuMTUyYTMxLjQxNiAzMS40MTYgMCAwIDAgMC00NC4zNkw2MjYuOTg0IDQ2MWwxMTguNjY0LTExOC42NTZhMzEuNDA4IDMxLjQwOCAwIDAgMCAwLTQ0LjM1MmwtNDMuMTUyLTQzLjEzNmMtMTEuODMyLTExLjg0LTMyLjUxMi0xMS44NC00NC4zNDQgMEw1MzkuNTA0IDM3My41MDQgNDIwLjgzMiAyNTQuODRjLTExLjg0OC0xMS44NDgtMzIuNTA0LTExLjg0OC00NC4zNTIgMC4wMDhsLTQzLjEzNiA0My4xMjhhMzEuMTQ0IDMxLjE0NCAwIDAgMC05LjE4NCAyMi4xNzZjMCA4LjM3NiAzLjI2NCAxNi4yNDggOS4xODQgMjIuMTY4bDExOC42NjQgMTE4LjY2NC0xMTguNjY0IDExOC42OGEzMS4xMiAzMS4xMiAwIDAgMC05LjE4NCAyMi4xNjhjMCA4LjM4NCAzLjI2NCAxNi4yNTYgOS4xODQgMjIuMTc2bDQzLjEzNiA0My4xNTJjMTEuODQgMTEuODMyIDMyLjUwNCAxMS44MzIgNDQuMzUyIDBsMTE4LjY3Mi0xMTguNjY0eiIvPjwvc3ZnPg==;" parent="1" vertex="1">
          <mxGeometry x="617" y="294.73" width="92.54" height="92.54" as="geometry" />
        </mxCell>
        <mxCell id="Q42ew3M5vbBd64VQrwt8-10" value="" style="rounded=1;whiteSpace=wrap;html=1;dashed=1;strokeColor=none;strokeWidth=3;fontColor=#4A919B;fillColor=#EFF1F3;opacity=90;" parent="1" vertex="1">
          <mxGeometry x="833" y="88" width="50" height="54" as="geometry" />
        </mxCell>
        <mxCell id="Q42ew3M5vbBd64VQrwt8-8" value="" style="shape=image;verticalLabelPosition=bottom;labelBackgroundColor=default;verticalAlign=top;aspect=fixed;imageAspect=0;image=data:image/svg+xml,PHN2ZyB4bWxuczp4bGluaz0iaHR0cDovL3d3dy53My5vcmcvMTk5OS94bGluayIgeG1sbnM9Imh0dHA6Ly93d3cudzMub3JnLzIwMDAvc3ZnIiBoZWlnaHQ9IjIwMCIgd2lkdGg9IjIwMCIgdmVyc2lvbj0iMS4xIiB2aWV3Qm94PSIwIDAgMTAyNCAxMDI0IiBjbGFzcz0iaWNvbiI+PHBhdGggZmlsbD0iIzRBOTE5QiIgZD0iTTY4OS41IDY4Ny42Yy0zLjMtNDQuOSAyMS41LTg3LjIgNjMuMS0xMDcuNiAxOTguMy05Ny40IDIwNi41LTM3OC45IDkuOS00OTYtMjAyLjItMTIwLjQtNDQ3LjkgMzAuNC00MzEuNyAyNTQgMy4zIDQ0LjktMjEuNSA4Ny4yLTYzLjEgMTA3LjYtMjA0IDEwMC4xLTIwMi42IDM4NC43LTYuMyA0OTguMSAyMDEuNyAxMTYuMyA0NDQuMi0zMy45IDQyOC4xLTI1Ni4xeiBtMTcuNi01NjYuN2wtODAuMiAxMzguOWMtMjEuMi0xMC45LTQzLjMtMjAuNS02Ni0yOC44IDU0LTc0LjMgMTMxLjYtMTE2LjYgMTQ2LjItMTEwLjF6TTUzMC44IDI4Mi4xYzIzLjMgOCA0NS43IDE3LjQgNjcgMjguMWwtOTUgMTY0LjYtMzUtMjAuMmMzLjMtOC40IDUuOS0xNi45IDcuOS0yNS41IDE2LjYtNzMuNyA1MC4xLTE0OC43IDU1LjEtMTQ3eiBtLTEzMi45LTI3LjhjMTcgMS4yIDQyLjggNC4yIDc0IDExLjItMzkuMiA3Ny4zLTUxIDE0NS4zLTU1LjUgMTU5LjZsLTM3LjItMjEuNWMyMS43LTU5LjEtMS45LTgyLjEgMTguNy0xNDkuM3ogbS00OC4xIDE5OS42bDM4IDIyYy0yMi4xIDI3LjQtNjguNCA2NS0xMTIuMSAxMjYuMi0yMS0yMy0zNi4xLTQzLjQtNDUuNi01Ny4zIDQ3LjUtNTAuOSA3OS4xLTQyLjYgMTE5LjctOTAuOXpNMTk0LjkgNTk1LjdjMTIuMiAxNi40IDI4LjQgMzYuMyA0OSA1Ny42LTI1LjYgNDguNC0zOS41IDk4LjctNDEuOSAxNTAuNC0zNS4yLTYzLjMtNDAuMy0xNDEuMS03LjEtMjA4eiBtMzA3LjYtMzgyLjhjLTMwLjMtNy43LTU3LTEyLjEtNzguMS0xNC42IDQyLjEtNjMuNiAxMTMuNC05OC40IDE4Ny42LTk4LjEtNDQuMiAzMC04MC41IDY5LjEtMTA5LjUgMTEyLjd6IG0tNjMuNiAyOTIuNGwzNC43IDIwLTk1IDE2NC42Yy0yMS41LTE0LjEtNDEuNi0yOS42LTYwLjctNDYuNSA0NC43LTY1LjUgOTAtOTcuMSAxMjEtMTM4LjF6TTI2NS41IDg3Ni41Yy0xMy41LTcxLTEtMTMxLjIgMjIuNy0xODEuNiAxOS42IDE2LjYgNDAgMzEuOCA2MS4yIDQ1LjUtODkgMTU0LjEtNzguNiAxNDAuMS04My45IDEzNi4xeiBtMzU3LTEwNS40Yy0yMy4zLTEuNS00Ni00LjUtNjguMy04LjkgMzEtNjguMyA0MC40LTEyNi44IDUzLTE1OS42bDMzLjkgMTkuNmMtMjEuNSA1OC43IDEuOSA4Mi0xOC42IDE0OC45eiBtNDgtMTk5LjRMNjM3IDU1Mi40YzkuNy0xMC41IDYzLTU1LjEgMTEwLjEtMTI3LjMgMTUuMyAxNy40IDI5LjYgMzYgNDIuOSA1NS44LTQ3LjUgNTAuOS03OC44IDQyLjQtMTE5LjUgOTAuOHogbTg2LjYtNDIwLjljNy44IDYgMTYuMSA4OC41LTI0LjEgMTc5LjQtMTcuNC0xNC43LTM1LTI3LjktNTUuNi00MS4zbDc5LjctMTM4LjF6TTY0OC4zIDMzOS4zYzIwIDEzLjIgMzkgMjcuNyA1Ni44IDQzLjYtNDguMSA3Ny44LTk4LjYgMTEzLjgtMTE5LjQgMTM5LjlMNTUzLjIgNTA0bDk1LjEtMTY0Ljd6TTMyMC4yIDkwNy42bDc5LjctMTM4LjFjMjIgMTEuMiA0My45IDIwLjYgNjcuNCAyOC45LTU3LjYgODIuNi0xNDEuOCAxMTEuNC0xNDcuMSAxMDkuMnpNNDI5IDcxOS4xbDk1LTE2NC42IDMyLjIgMTguNkM1MzcgNjE4LjMgNTMxLjEgNjc2LjMgNDk3IDc0Ny4yYy0yMy4zLTcuNi00Ni0xNy02OC0yOC4xeiBtMzk2LjQtMjg5LjJjLTE0LjgtMjAuNC0zMC44LTM5LjctNDcuOS01Ny43IDIyLjctNDUuOCAzOC4yLTk1LjIgNDIuNy0xNDYuOSAzMy4zIDYyLjIgMzguMSAxMzguNCA1LjIgMjA0LjZ6TTQxOS43IDkyNS4xYzQyLjItMjcuNyA3Ny43LTY0LjQgMTA2LjEtMTA5LjYgMjMgNS40IDQ2LjQgOS4zIDcwLjIgMTEuOC00MC40IDYxLTEwNi45IDk0LjctMTc2LjMgOTcuOHoiLz48L3N2Zz4=;" parent="1" vertex="1">
          <mxGeometry x="826.91" y="83.91" width="47.09" height="47.09" as="geometry" />
        </mxCell>
        <mxCell id="7pDpAnwp-hcN5S6sYPUx-1" value="&lt;font style=&quot;font-size: 20px;&quot;&gt;局域网&lt;/font&gt;" style="text;html=1;strokeColor=none;fillColor=none;align=center;verticalAlign=middle;whiteSpace=wrap;rounded=0;dashed=1;strokeWidth=3;fontColor=#4A919B;opacity=60;" vertex="1" parent="1">
          <mxGeometry x="264.5" y="163" width="97" height="30" as="geometry" />
        </mxCell>
        <mxCell id="7pDpAnwp-hcN5S6sYPUx-2" value="&lt;font style=&quot;font-size: 20px;&quot;&gt;广域网&lt;/font&gt;" style="text;html=1;strokeColor=none;fillColor=none;align=center;verticalAlign=middle;whiteSpace=wrap;rounded=0;dashed=1;strokeWidth=3;fontColor=#4A919B;opacity=60;" vertex="1" parent="1">
          <mxGeometry x="264.49999999999994" y="83.91" width="97" height="30" as="geometry" />
        </mxCell>
        <mxCell id="7pDpAnwp-hcN5S6sYPUx-3" value="&lt;font style=&quot;font-size: 26px;&quot; color=&quot;#4a919b&quot;&gt;代理服务器x&lt;br&gt;&lt;/font&gt;" style="text;html=1;strokeColor=none;fillColor=none;align=center;verticalAlign=middle;whiteSpace=wrap;rounded=0;" vertex="1" parent="1">
          <mxGeometry x="731.5" y="118" width="154" height="48.09" as="geometry" />
        </mxCell>
      </root>
    </mxGraphModel>
  </diagram>
</mxfile>
